<svg id="Capa_1" data-name="Capa 1" xmlns="http://www.w3.org/2000/svg" viewBox="0 0 141.73 141.73"><defs><style>.cls-1{fill:#fff;}</style></defs><path class="cls-1" d="M64.05,44.07c-2.1,3.76-4.13,7.37-6.15,11l.12.1c.18-.21.36-.41.52-.63,2.51-3.39,5-6.79,7.52-10.2a1.64,1.64,0,0,1,1.39-.8c1.2,0,2.4,0,3.59-.08a1,1,0,0,1,1.12.75C74,48,75.78,51.83,77.6,55.64a1.3,1.3,0,0,0,.46.6L75.33,44a11.38,11.38,0,0,1,4,1.32,63,63,0,0,1,15,11.78,117.3,117.3,0,0,1,23.94,34.11,56.24,56.24,0,0,1,5.13,18.4c.68,8-1,15.4-6.45,21.67a17.09,17.09,0,0,1-8.89,5.56,101.29,101.29,0,0,1-16.22,2.6,247,247,0,0,1-31.95.75c-8.67-.34-17.32-.93-25.82-2.8-.65-.14-1.29-.32-1.93-.47-6.92-1.55-10.82-6.49-13.68-12.44-2.5-5.21-2.89-10.79-2.18-16.46,1-8.33,4.12-16,8.21-23.2a119.65,119.65,0,0,1,30.77-36c2.36-1.83,4.77-3.65,7.73-4.45C63.23,44.24,63.56,44.18,64.05,44.07Zm3.75,68.45a8.07,8.07,0,0,1-5.66-4.59c-.58-1.29-1-2.65-1.49-4a4.09,4.09,0,0,0-4.88-2.73,4.32,4.32,0,0,0-3.53,4.11,12,12,0,0,0,2.51,7.2c3,4.12,7.25,6.12,12.19,6.81.69.1.87.31.87,1a42.17,42.17,0,0,0,.09,5.39c.19,1.48.79,2,2.12,2s1.72-.52,1.92-2a41.59,41.59,0,0,0,.12-5.58c0-.58.15-.79.77-.86a17.09,17.09,0,0,0,8.44-3A14.11,14.11,0,0,0,87.21,102c-.8-5.4-4.13-8.84-9.2-10.64-1.72-.61-3.48-1.13-5.23-1.64-.5-.15-.72-.34-.71-.89q0-6.26,0-12.49c0-.62.12-.79.75-.52a7.22,7.22,0,0,1,4,3.79c.34.77.56,1.6.88,2.39A4.11,4.11,0,0,0,82.8,84.5a4.18,4.18,0,0,0,3-4.66,7.34,7.34,0,0,0-.66-2.36,13.52,13.52,0,0,0-9-7.88A20.09,20.09,0,0,0,72.79,69c-.54,0-.73-.26-.73-.83a18.73,18.73,0,0,0-.12-4,1.85,1.85,0,0,0-2.07-1.66,1.89,1.89,0,0,0-1.94,1.71,15.25,15.25,0,0,0-.13,3c0,1.58,0,1.58-1.61,1.81l-.93.17c-6.61,1.19-10.82,5.24-11.58,11.47-.74,6,1.25,10.88,7.09,13.72A31.77,31.77,0,0,0,66.7,96.6c.93.24,1.13.67,1.12,1.55,0,4.1,0,8.2,0,12.3Z"/><path class="cls-1" d="M79,30.48c-1.83,2.65-3.72,5.25-5.45,8a2.29,2.29,0,0,1-2.6,1.19,25.68,25.68,0,0,0-7.73,0,10.81,10.81,0,0,0-4,1.48c-.44.29-.68.23-1-.16q-7.26-8.59-14.55-17.18a4,4,0,0,1-.71-4,7.34,7.34,0,0,1,1.23-2.33A16.33,16.33,0,0,1,51.86,12c.59-.22.87-.08,1.16.49,1.86,3.75,3.76,7.49,5.65,11.22a1.86,1.86,0,0,0,.63.89c-.38-1.29-.72-2.46-1.07-3.63C56.83,16.28,55.45,11.63,54,7a1.21,1.21,0,0,1,.44-1.46,15.11,15.11,0,0,1,7.27-3.19,49.53,49.53,0,0,1,23.67,1,15.92,15.92,0,0,1,4,1.87c.62.39.71.77.42,1.46-1.94,4.54-3.83,9.11-5.75,13.68.36,0,.39-.26.52-.43,1.76-2.34,3.54-4.67,5.25-7.05.43-.59.72-.58,1.26-.21a14.12,14.12,0,0,1,4.26,4.24,6.34,6.34,0,0,1-.55,7.89c-4.7,5.48-9.46,10.91-14.19,16.37a.72.72,0,0,1-1,.25A17.2,17.2,0,0,0,76,40.31c-.71-.13-.7-.38-.46-.94,1.13-2.67,2.23-5.35,3.33-8,.11-.25.2-.51.3-.77Z"/><path class="cls-1" d="M72.2,98.25a12.46,12.46,0,0,1,5.49,3c1.76,1.82,2,5.25.52,7.69a8.33,8.33,0,0,1-5.51,3.82c-.42.11-.63.07-.63-.45,0-4.61,0-9.21,0-13.82C72.1,98.42,72.15,98.36,72.2,98.25Z"/><path class="cls-1" d="M67.8,81.81c0,1.83,0,3.65,0,5.48,0,.88-.27,1-.95.6s-1.15-.53-1.7-.83c-2.9-1.58-3.91-3.92-3.11-7.12a4.57,4.57,0,0,1,1.72-2.63,13.73,13.73,0,0,1,3.08-1.62c.71-.3,1-.23,1,.63C67.76,78.15,67.8,80,67.8,81.81Z"/></svg>